<svg id="Capa_1" data-name="Capa 1" xmlns="http://www.w3.org/2000/svg" viewBox="0 0 222.4 251.2"><path d="M146.759,232.84237A109.46769,109.46769,0,0,1,12.73963,154.71044c-.81533-3.1099-5.63947-1.79117-4.82139,1.32919A114.50271,114.50271,0,0,0,102.14005,240.307a116.38183,116.38183,0,0,0,45.94811-2.6432c3.109-.81843,1.79052-5.64265-1.3292-4.8214Z" style="fill:#706f6f"/><path d="M212.45634,183.41363a110.6816,110.6816,0,0,1-48.13511,43.12561,108.59432,108.59432,0,0,1-17.56227,6.30313c-3.10546.83016-1.788,5.65469,1.3292,4.8214a114.97639,114.97639,0,0,0,57.42574-36.13809,117.33192,117.33192,0,0,0,11.2598-15.58846c1.66725-2.76175-2.65457-5.278-4.31736-2.52359Z" style="fill:#706f6f"/><path d="M148.08816,16.50348A115.9965,115.9965,0,0,0,95.959,14.91325,113.56128,113.56128,0,0,0,56.40778,31.04876,116.02235,116.02235,0,0,0,25.76411,60.25125,113.61461,113.61461,0,0,0,7.741,98.78485a115.71529,115.71529,0,0,0-1.44649,50.0548q.69342,3.6262,1.6237,7.2c.8041,3.11316,5.628,1.79348,4.82139-1.32919A109.41794,109.41794,0,0,1,139.78535,19.70963c2.34141.4643,4.66539,1.00757,6.97361,1.61524,3.1145.81994,4.44316-4.00159,1.3292-4.82139Z" style="fill:#706f6f"/><path d="M149.92356,18.91417v-.0111a1.88281,1.88281,0,0,0-.21531-.9632,2.24816,2.24816,0,0,0-1.32149-1.32148,1.88279,1.88279,0,0,0-.9632-.21532l-.6646.0893a2.49776,2.49776,0,0,0-1.10317.64294l-.39091.506a2.4885,2.4885,0,0,0-.34132,1.2618v.0111a1.88289,1.88289,0,0,0,.21531.9632,2.24814,2.24814,0,0,0,1.32149,1.32149,1.88271,1.88271,0,0,0,.9632.21531l.6646-.0893a2.49774,2.49774,0,0,0,1.10317-.64293l.39091-.506a2.4885,2.4885,0,0,0,.34132-1.2618Z" style="fill:#706f6f"/><path d="M144.92356,80.19394v69.37789c0,3.21726,5,3.22259,5,0V80.19394c0-3.21726-5-3.22259-5,0Z" style="fill:#706f6f"/><path d="M144.92356,149.57183v75.11633c0,3.46153-.1404,6.95621,0,10.4157.002.04956,0,.09958,0,.14921,0,3.21726,5,3.22259,5,0V160.13674c0-3.46153.14041-6.95621,0-10.4157-.002-.04956,0-.09959,0-.14921,0-3.21726-5-3.22259-5,0Z" style="fill:#706f6f"/><path d="M144.92356,235.25307v.01091a2.5694,2.5694,0,0,0,2.5,2.5l.6646-.0893a2.49774,2.49774,0,0,0,1.10317-.64293l.39091-.506a2.4885,2.4885,0,0,0,.34132-1.2618v-.01091a2.5694,2.5694,0,0,0-2.5-2.5l-.6646.0893a2.49774,2.49774,0,0,0-1.10317.64293l-.39091.506a2.4885,2.4885,0,0,0-.34132,1.2618Z" style="fill:#706f6f"/><path d="M81.37273,113.56481,56.9683,126.94792l-38.92717,21.3472-8.974,4.92124c-2.82213,1.54762-.302,5.8669,2.52359,4.31735l24.40443-13.3831L74.92233,122.8034l8.974-4.92123c2.82214-1.54763.302-5.86691-2.52359-4.31736Z" style="fill:#706f6f"/><path d="M9.06714,153.21636l-.0037.00214a1.88931,1.88931,0,0,0-.70143.64389,2.24522,2.24522,0,0,0-.49212,1.84709,1.86064,1.86064,0,0,0,.29667.92949l.39091.506a2.49763,2.49763,0,0,0,1.10317.64293l.6646.08931a2.48845,2.48845,0,0,0,1.26179-.34133l.0037-.00214a1.88931,1.88931,0,0,0,.70143-.64389,2.24527,2.24527,0,0,0,.49213-1.84708,1.86059,1.86059,0,0,0-.29668-.9295l-.39091-.506a2.49765,2.49765,0,0,0-1.10316-.64293l-.6646-.08931a2.48851,2.48851,0,0,0-1.2618.34133Z" style="fill:#706f6f"/><path d="M83.89632,117.88217,105.844,105.84631l34.84062-19.10618,8.00073-4.38751c2.82213-1.54763.302-5.8669-2.5236-4.31735L124.21407,90.07112,89.37346,109.1773l-8.00073,4.38751c-2.82214,1.54763-.30205,5.8669,2.52359,4.31736Z" style="fill:#706f6f"/><path d="M213.35322,186.8341l.00546.00292a1.86055,1.86055,0,0,0,.92949.29668,2.5683,2.5683,0,0,0,2.491-1.19356l.252-.59719a2.51767,2.51767,0,0,0,0-1.3292l-.252-.5972a2.51229,2.51229,0,0,0-.89688-.89688l-.00545-.00292a1.86061,1.86061,0,0,0-.9295-.29667,2.56832,2.56832,0,0,0-2.491,1.19355l-.252.5972a2.51763,2.51763,0,0,0,0,1.32919l.252.5972a2.51245,2.51245,0,0,0,.89688.89688Z" style="fill:#706f6f"/><path d="M82.63433,118.22349h.00019a2.5694,2.5694,0,0,0,2.5-2.5l-.0893-.6646a2.49774,2.49774,0,0,0-.64293-1.10317l-.506-.39091a2.4885,2.4885,0,0,0-1.2618-.34132h-.00019a2.5694,2.5694,0,0,0-2.5,2.5l.0893.6646a2.49774,2.49774,0,0,0,.64293,1.10317l.506.39091a2.4885,2.4885,0,0,0,1.2618.34132Z" style="fill:#706f6f"/><path d="M81.37273,117.88217l21.938,11.46125,34.91139,18.23908,7.93968,4.148c2.84893,1.4884,5.37973-2.82519,2.5236-4.31735l-21.938-11.46125L91.836,117.71281l-7.93968-4.148c-2.84892-1.48839-5.37973,2.8252-2.52359,4.31736Z" style="fill:#706f6f"/><path d="M215.87682,182.51675l-22.804-11.91376-36.07737-18.8483-8.31009-4.34154c-2.84893-1.48839-5.37973,2.82519-2.5236,4.31735l22.804,11.91376,36.07737,18.84831,8.31009,4.34153c2.84893,1.4884,5.37973-2.82519,2.5236-4.31735Z" style="fill:#706f6f"/><polyline points="135.46 191.843 53.879 191.843 53.879 143.456" style="fill:none;stroke:#ecbf7c;stroke-linecap:round;stroke-linejoin:round;stroke-width:4px"/><polyline points="183.398 179.879 183.398 191.843 159.387 191.843" style="fill:none;stroke:#ecbf7c;stroke-linecap:round;stroke-linejoin:round;stroke-width:4px"/><polyline points="159.387 62.324 183.398 62.324 183.398 155.952" style="fill:none;stroke:#ecbf7c;stroke-linecap:round;stroke-linejoin:round;stroke-width:4px"/><polyline points="53.879 119.529 53.879 62.324 135.46 62.324" style="fill:none;stroke:#ecbf7c;stroke-linecap:round;stroke-linejoin:round;stroke-width:4px"/></svg>