<svg id="Capa_1" data-name="Capa 1" xmlns="http://www.w3.org/2000/svg" viewBox="0 0 169 71"><path d="M48.8167,64.28631A30.46853,30.46853,0,0,1,11.51533,42.52986a1.25107,1.25107,0,0,0-2.4107.66459,33.26421,33.26421,0,0,0,27.2467,24.2757,33.82138,33.82138,0,0,0,13.13-.77314,1.25107,1.25107,0,0,0-.66459-2.4107Z" style="fill:#706f6f"/><path d="M67.10505,50.53208A30.84217,30.84217,0,0,1,48.8167,64.28631a1.25107,1.25107,0,0,0,.66459,2.4107A33.42523,33.42523,0,0,0,69.26372,51.79388a1.25093,1.25093,0,0,0-2.15867-1.2618Z" style="fill:#706f6f"/><path d="M49.48129,2.99734A32.96874,32.96874,0,0,0,9.01472,26.84608a33.6482,33.6482,0,0,0,.08991,16.34837,1.25108,1.25108,0,0,0,2.4107-.66459A30.46842,30.46842,0,0,1,33.49394,5.31911,30.87987,30.87987,0,0,1,48.8167,5.408a1.25107,1.25107,0,0,0,.66459-2.4107Z" style="fill:#706f6f"/><path d="M50.399,4.20269V4.19954a.94135.94135,0,0,0-.10765-.4816.937.937,0,0,0-.25846-.40228.93689.93689,0,0,0-.40229-.25846.94143.94143,0,0,0-.4816-.10766l-.33229.04466a1.24885,1.24885,0,0,0-.55159.32146l-.19545.253a1.24429,1.24429,0,0,0-.17067.6309v.00315a.94146.94146,0,0,0,.10766.4816.937.937,0,0,0,.25846.40228.93689.93689,0,0,0,.40229.25846.94132.94132,0,0,0,.48159.10766l.3323-.04465a1.24887,1.24887,0,0,0,.55159-.32147l.19545-.253a1.24418,1.24418,0,0,0,.17066-.6309Z" style="fill:#706f6f"/><path d="M47.899,21.56329V41.2181a1.25075,1.25075,0,0,0,2.5,0V21.56329a1.25075,1.25075,0,0,0-2.5,0Z" style="fill:#706f6f"/><path d="M47.899,41.2181V65.49166a1.25075,1.25075,0,0,0,2.5,0V41.2181a1.25075,1.25075,0,0,0-2.5,0Z" style="fill:#706f6f"/><path d="M47.899,65.49166v.00309a1.2847,1.2847,0,0,0,1.25,1.25l.3323-.04465a1.24885,1.24885,0,0,0,.55159-.32146l.19545-.253a1.24413,1.24413,0,0,0,.17066-.6309v-.00309a1.28471,1.28471,0,0,0-1.25-1.25l-.33229.04465a1.24887,1.24887,0,0,0-.55159.32147l-.19545.253a1.24429,1.24429,0,0,0-.17067.6309Z" style="fill:#706f6f"/><path d="M30.16331,30.5495l-17.9265,9.83069L9.67908,41.78282c-1.41106.77381-.151,2.93345,1.2618,2.15867l17.9265-9.83068,2.55773-1.40263c1.41107-.77381.151-2.93345-1.2618-2.15868Z" style="fill:#706f6f"/><path d="M9.67908,41.78282l-.001.0006a1.39842,1.39842,0,0,0-.57445.747.94679.94679,0,0,0-.02233.49845.93026.93026,0,0,0,.14834.46475l.19545.253a1.24885,1.24885,0,0,0,.55159.32146l.3323.04465a1.24422,1.24422,0,0,0,.63089-.17066l.001-.00061a1.39845,1.39845,0,0,0,.57445-.747.94679.94679,0,0,0,.02233-.49845.93032.93032,0,0,0-.14834-.46474l-.19545-.253a1.24885,1.24885,0,0,0-.55159-.32146l-.3323-.04466a1.24429,1.24429,0,0,0-.6309.17067Z" style="fill:#706f6f"/><path d="M31.42511,32.70818l16.06295-8.80873,2.29183-1.25682c1.41107-.77381.151-2.93345-1.26179-2.15867L32.45515,29.29269,30.16331,30.5495c-1.41106.77382-.151,2.93345,1.2618,2.15868Z" style="fill:#706f6f"/><path d="M67.55349,52.24232l.00154.00082a.93026.93026,0,0,0,.46475.14834,1.28415,1.28415,0,0,0,1.24549-.59678l.126-.2986a1.2589,1.2589,0,0,0,0-.66459l-.126-.2986a1.25615,1.25615,0,0,0-.44844-.44844l-.00154-.00083a.93036.93036,0,0,0-.46475-.14834,1.28419,1.28419,0,0,0-1.24549.59678l-.126.2986a1.25873,1.25873,0,0,0,0,.6646l.126.2986a1.25615,1.25615,0,0,0,.44844.44844Z" style="fill:#706f6f"/><path d="M30.79416,32.87884h0a1.28468,1.28468,0,0,0,1.25-1.25l-.04465-.3323a1.24874,1.24874,0,0,0-.32147-.55158l-.253-.19546a1.24422,1.24422,0,0,0-.6309-.17066h0a1.28468,1.28468,0,0,0-1.25,1.25l.04465.3323a1.24885,1.24885,0,0,0,.32146.55159l.253.19545a1.24422,1.24422,0,0,0,.6309.17066Z" style="fill:#706f6f"/><path d="M30.16331,32.70818l16.06916,8.39516,2.28563,1.1941c1.42446.7442,2.68986-1.4126,1.26179-2.15868L33.71073,31.7436l-2.28562-1.1941c-1.42446-.74419-2.68986,1.4126-1.2618,2.15868Z" style="fill:#706f6f"/><path d="M68.81529,50.08364l-16.665-8.70649-2.37038-1.23839c-1.42446-.74419-2.68986,1.4126-1.26179,2.15868l16.665,8.70649,2.37038,1.23839c1.42446.74419,2.68986-1.4126,1.2618-2.15868Z" style="fill:#706f6f"/><polyline points="45.76 53.194 22.648 53.194 22.648 39.486" style="fill:none;stroke:#ecbf7c;stroke-linecap:round;stroke-linejoin:round;stroke-width:2px"/><polyline points="59.341 49.804 59.341 53.194 52.538 53.194" style="fill:none;stroke:#ecbf7c;stroke-linecap:round;stroke-linejoin:round;stroke-width:2px"/><polyline points="52.538 16.501 59.341 16.501 59.341 43.026" style="fill:none;stroke:#ecbf7c;stroke-linecap:round;stroke-linejoin:round;stroke-width:2px"/><polyline points="22.648 32.707 22.648 16.501 45.76 16.501" style="fill:none;stroke:#ecbf7c;stroke-linecap:round;stroke-linejoin:round;stroke-width:2px"/><text transform="translate(68.18381 44.64961)" style="font-size:14.268911361694336px;fill:#010101;font-family:Poppins-Regular, Poppins">ARTES</text><text transform="translate(68.18381 44.64961)" style="font-size:14.268911361694336px;fill:#706f6f;font-family:Poppins-Regular, Poppins">ARTES</text><text transform="translate(68.18381 44.64961)" style="font-size:14.268911361694336px;fill:none;stroke:#706f6f;stroke-miterlimit:10;stroke-width:0.5px;font-family:Poppins-Regular, Poppins">ARTES</text><text transform="translate(67.76584 32.61397)" style="font-size:21.76021957397461px;fill:#010101;font-family:MicrosoftNewTaiLue, Microsoft New Tai Lue">Colombia</text><text transform="translate(67.76584 32.61397)" style="font-size:21.76021957397461px;fill:#ecbf7c;font-family:MicrosoftNewTaiLue, Microsoft New Tai Lue">Colombia</text><text transform="translate(67.76584 32.61397)" style="font-size:21.76021957397461px;fill:none;stroke:#ecbf7c;stroke-miterlimit:10;font-family:MicrosoftNewTaiLue, Microsoft New Tai Lue">Colombia</text></svg>